<?xml version="1.0" standalone="no"?><!DOCTYPE svg PUBLIC "-//W3C//DTD SVG 1.1//EN" "http://www.w3.org/Graphics/SVG/1.1/DTD/svg11.dtd"><svg t="1641913897998" class="icon" viewBox="0 0 1024 1024" version="1.1" xmlns="http://www.w3.org/2000/svg" p-id="1507" xmlns:xlink="http://www.w3.org/1999/xlink" width="200" height="200"><defs><style type="text/css"></style></defs><path d="M144.384 213.674667h736.085333v534.698666H144.384z" fill="#FFE98D" p-id="1508"></path><path d="M144.384 678.741333h736.085333v69.802667H144.384z" fill="#FFCD52" p-id="1509"></path><path d="M326.144 200.021333H154.453333l61.098667-133.632h171.690667l-61.098667 133.632z" fill="#FFE98D" p-id="1510"></path><path d="M484.352 200.021333H312.661333l61.098667-133.632h171.690667l-61.098667 133.632zM812.714667 200.021333H641.024l61.269333-133.632H873.813333l-61.098666 133.632zM161.792 200.021333H58.538667L51.2 66.389333h171.690667l-61.098667 133.632z" fill="#FFFFFF" p-id="1511"></path><path d="M654.165333 200.021333H482.474667l61.098666-133.632h171.690667l-61.098667 133.632zM972.8 200.021333H801.109333l61.098667-133.632h107.008l3.584 133.632z" fill="#FFE98D" p-id="1512"></path><path d="M933.546667 230.4a59.733333 59.733333 0 0 0 59.733333-59.733333V93.866667A59.733333 59.733333 0 0 0 933.546667 34.133333H94.037333A59.733333 59.733333 0 0 0 34.133333 93.866667V170.666667a59.733333 59.733333 0 0 0 59.733334 59.733333h22.186666v501.248H59.904a25.6 25.6 0 0 0 0 51.2H116.053333V964.266667a25.6 25.6 0 0 0 51.2 0V782.848h693.077334V964.266667a25.6 25.6 0 0 0 51.2 0V782.848h56.149333a25.6 25.6 0 1 0 0-51.2h-56.149333V230.4z m8.533333-136.533333V170.666667a8.533333 8.533333 0 0 1-8.533333 8.533333h-95.232L882.176 85.333333h51.2a8.533333 8.533333 0 0 1 8.704 8.533334z m-757.248 85.333333L228.693333 85.333333h125.781334l-43.861334 93.866667zM392.533333 85.333333h125.781334l-43.861334 93.866667h-126.293333z m163.328 0h125.781334l-43.861334 93.866667H512z m163.328 0h125.781334l-43.861334 93.866667h-126.122666zM85.333333 170.666667V93.866667a8.533333 8.533333 0 0 1 8.533334-8.533334h96.938666l-43.690666 93.866667H94.037333A8.533333 8.533333 0 0 1 85.333333 170.666667z m774.826667 560.981333H167.253333V230.4h693.077334z" fill="#3E4454" p-id="1513"></path><path d="M513.877333 644.266667A174.08 174.08 0 1 0 339.626667 470.357333a174.250667 174.250667 0 0 0 174.250666 173.909334z m0-34.133334a139.264 139.264 0 0 1-85.333333-29.696l196.266667-196.096a139.605333 139.605333 0 0 1-110.250667 225.792z m0-279.722666a139.264 139.264 0 0 1 85.333334 29.696L403.626667 556.373333a139.605333 139.605333 0 0 1 110.250666-225.792z" fill="#3E4454" p-id="1514"></path></svg>