<?xml version="1.0" standalone="no"?><!DOCTYPE svg PUBLIC "-//W3C//DTD SVG 1.1//EN" "http://www.w3.org/Graphics/SVG/1.1/DTD/svg11.dtd"><svg t="1641913873613" class="icon" viewBox="0 0 1024 1024" version="1.1" xmlns="http://www.w3.org/2000/svg" p-id="1365" xmlns:xlink="http://www.w3.org/1999/xlink" width="200" height="200"><defs><style type="text/css"></style></defs><path d="M968.874667 157.013333l-102.4-102.4a71.850667 71.850667 0 0 0-102.4 0L188.757333 631.466667a71.850667 71.850667 0 0 0-20.992 51.2v97.450666l-114.517333 114.346667a53.930667 53.930667 0 0 0 0 76.288 53.930667 53.930667 0 0 0 76.288 0l114.517333-114.517333H341.333333a71.850667 71.850667 0 0 0 51.2-20.992l576.341334-576.512a71.850667 71.850667 0 0 0 0-101.717334z" fill="#FFFFFF" p-id="1366"></path><path d="M110.3872 850.005333l63.5904 63.607467L97.723733 989.866667l-63.607466-63.607467z" fill="#FF5C74" p-id="1367"></path><path d="M918.016 207.872L282.112 843.605333h-2.56c1.194667 4.266667 2.389333 8.533333 3.413333 12.8H341.333333a72.021333 72.021333 0 0 0 51.2-20.992l576.341334-576.682666a71.850667 71.850667 0 0 0 0-102.4l-51.2-51.2a71.850667 71.850667 0 0 1 0.341333 102.741333z" fill="#E1E8EF" p-id="1368"></path><path d="M989.866667 141.482667L882.517333 34.133333a93.866667 93.866667 0 0 0-132.778666 0L170.666667 614.4a96.768 96.768 0 0 0-28.672 68.266667v86.698666l-106.837334 107.008a79.530667 79.530667 0 0 0 112.469334 112.469334l107.008-107.008H341.333333A96.768 96.768 0 0 0 409.6 853.333333l580.266667-579.242666a93.866667 93.866667 0 0 0 0-132.778667z m-36.181334 96.597333L374.101333 817.152a45.909333 45.909333 0 0 1-32.768 13.482667h-97.450666a25.6 25.6 0 0 0-18.090667 7.509333l-114.346667 114.517333a28.330667 28.330667 0 0 1-40.106666-40.106666l114.517333-114.517334a25.6 25.6 0 0 0 7.509333-18.090666V682.666667a45.909333 45.909333 0 0 1 13.653334-32.768l55.808-55.808 32.768 32.768a17.066667 17.066667 0 0 0 24.064-24.064l-32.768-32.768 52.224-52.224 32.768 32.768a17.066667 17.066667 0 0 0 24.064-24.064l-32.768-32.768 52.224-52.224 32.768 32.768a17.066667 17.066667 0 0 0 24.064-24.064l-32.768-32.768 52.224-52.224 32.768 32.768a17.066667 17.066667 0 0 0 24.064-24.064L515.754667 341.333333l52.224-52.224 32.768 32.768a17.066667 17.066667 0 0 0 24.064-24.064l-32.768-32.768 52.224-52.224 32.768 32.768A17.066667 17.066667 0 0 0 701.098667 221.866667l-32.768-34.133334 117.76-117.76a42.666667 42.666667 0 0 1 60.416 0l106.837333 106.837334a42.666667 42.666667 0 0 1 0 60.416z" fill="#3E4454" p-id="1369"></path><path d="M765.952 233.813333L282.794667 716.8A17.066667 17.066667 0 1 0 307.2 741.205333l482.986667-483.157333a17.066667 17.066667 0 0 0-24.064-24.064z" fill="#3E4454" p-id="1370"></path></svg>