<?xml version="1.0" standalone="no"?><!DOCTYPE svg PUBLIC "-//W3C//DTD SVG 1.1//EN" "http://www.w3.org/Graphics/SVG/1.1/DTD/svg11.dtd"><svg t="1641913909793" class="icon" viewBox="0 0 1024 1024" version="1.1" xmlns="http://www.w3.org/2000/svg" p-id="1649" xmlns:xlink="http://www.w3.org/1999/xlink" width="200" height="200"><defs><style type="text/css"></style></defs><path d="M45.413547 397.824S-2.88512 513.365333 51.216213 702.293333a404.309333 404.309333 0 0 0 65.706667 131.242667 183.296 183.296 0 0 0 128.853333 73.216 797.525333 797.525333 0 0 0 195.584-6.997333A716.8 716.8 0 0 0 802.149547 743.594667S740.880213 614.4 726.544213 503.296a743.082667 743.082667 0 0 1-2.730666-164.522667s-76.629333-3.413333-186.197334-19.285333c-83.114667-12.117333-184.149333-40.618667-290.133333-26.624-166.570667 22.186667-202.069333 104.96-202.069333 104.96z" fill="#76B4FF" p-id="1650"></path><path d="M726.544213 503.296a743.082667 743.082667 0 0 1-2.730666-164.522667s-13.994667 0-38.4-2.56a242.858667 242.858667 0 0 1-27.477334 23.722667 750.933333 750.933333 0 0 0 2.901334 162.816c14.336 111.445333 75.605333 240.469333 75.605333 240.469333l-2.048 1.877334c9.045333 3.072 17.92 6.656 26.794667 10.410666a428.544 428.544 0 0 0 40.96-31.914666S740.880213 614.4 726.544213 503.296z" fill="#43A1FF" p-id="1651"></path><path d="M320.357547 906.752a183.296 183.296 0 0 1-128.853334-73.216 404.309333 404.309333 0 0 1-65.706666-131.242667C71.525547 513.365333 119.48288 397.824 119.48288 397.824s35.498667-82.773333 202.410667-104.96c8.021333-1.024 16.042667-1.536 24.234666-2.048a487.936 487.936 0 0 0-98.645333 2.048c-167.082667 22.186667-202.410667 104.96-202.410667 104.96S-2.88512 513.365333 51.216213 702.293333a404.309333 404.309333 0 0 0 65.706667 131.242667 183.296 183.296 0 0 0 128.853333 73.216 667.989333 667.989333 0 0 0 102.4 2.218667c-9.898667-0.682667-19.285333-1.365333-27.818666-2.218667z" fill="#CFE5FF" p-id="1652"></path><path d="M1014.45888 288.597333a126.293333 126.293333 0 0 0-77.653333-85.333333c-93.525333-34.133333-173.738667 57.856-210.261334 110.08h-1.706666s-76.8-3.584-183.637334-18.944c-19.114667-2.730667-39.253333-6.485333-60.245333-10.24S438.629547 276.48 416.44288 273.066667c13.994667-45.397333 27.818667-126.976-39.424-160.085334a145.749333 145.749333 0 0 0-119.466667-5.802666C139.45088 150.869333 51.216213 328.362667 28.85888 375.466667a91.306667 91.306667 0 0 0-6.997333 12.288c-2.048 5.12-51.2 126.122667 4.949333 321.365333a430.421333 430.421333 0 0 0 69.632 139.434667 209.749333 209.749333 0 0 0 146.773333 83.456 633.002667 633.002667 0 0 0 66.730667 3.413333 957.269333 957.269333 0 0 0 135.168-10.410667c232.277333-34.133333 368.64-157.354667 374.442667-162.645333s1.024 0 1.536-1.024 59.562667-69.802667 107.690666-138.581333c79.018667-112.810667 113.322667-247.296 85.674667-334.165334zM269.840213 139.093333a111.445333 111.445333 0 0 1 92.16 4.437334c46.421333 22.869333 31.744 89.770667 20.138667 124.757333a552.789333 552.789333 0 0 0-137.557333 0 394.410667 394.410667 0 0 0-143.189334 44.373333c38.912-66.048 99.157333-147.968 168.448-173.568z m168.106667 735.402667a779.434667 779.434667 0 0 1-189.269333 6.826667 158.378667 158.378667 0 0 1-110.933334-62.976 380.586667 380.586667 0 0 1-61.781333-123.050667c-49.152-170.666667-9.898667-279.552-6.997333-287.232 2.389333-4.778667 39.082667-70.656 182.272-89.770667 76.8-10.24 153.6 3.754667 220.672 16.042667 21.674667 3.925333 42.154667 7.68 61.952 10.581333 72.704 10.581333 130.56 15.530667 162.304 17.066667a797.525333 797.525333 0 0 0 4.949333 143.872 932.181333 932.181333 0 0 0 69.632 230.058667 715.605333 715.605333 0 0 1-332.8 138.410666z m463.36-272.213333c-29.696 42.325333-63.488 85.333333-85.333333 110.933333a883.2 883.2 0 0 1-64.682667-213.333333A724.821333 724.821333 0 0 1 749.24288 341.333333c29.013333-43.178667 100.181333-133.12 175.957333-105.472a92.16 92.16 0 0 1 56.832 63.317334c24.917333 77.312-8.021333 199.338667-80.725333 303.104z" fill="#3E4454" p-id="1653"></path><path d="M622.77888 436.906667h-27.306667V409.6a17.066667 17.066667 0 0 0-34.133333 0v27.306667h-27.306667a17.066667 17.066667 0 0 0 0 34.133333h27.306667v27.306667a17.066667 17.066667 0 0 0 34.133333 0v-27.306667h27.306667a17.066667 17.066667 0 0 0 0-34.133333z" fill="#3E4454" p-id="1654"></path></svg>