<?xml version="1.0" standalone="no"?><!DOCTYPE svg PUBLIC "-//W3C//DTD SVG 1.1//EN" "http://www.w3.org/Graphics/SVG/1.1/DTD/svg11.dtd"><svg t="1641913818545" class="icon" viewBox="0 0 1024 1024" version="1.1" xmlns="http://www.w3.org/2000/svg" p-id="1078" xmlns:xlink="http://www.w3.org/1999/xlink" width="200" height="200"><defs><style type="text/css"></style></defs><path d="M614.4 119.466667L153.6 580.266667a68.266667 68.266667 0 0 0 0 97.109333l193.024 194.218667a68.266667 68.266667 0 0 0 97.109333 0L904.533333 409.6z" fill="#FFFFFF" p-id="1079"></path><path d="M450.56 768a68.266667 68.266667 0 0 1-97.109333 0L159.402667 574.293333l-6.997334 5.973334a68.266667 68.266667 0 0 0 0 97.109333l194.218667 194.218667a68.266667 68.266667 0 0 0 97.109333 0L904.533333 409.6l-48.128-48.128z" fill="#E1E8EF" p-id="1080"></path><path d="M243.712 488.96L152.405333 580.266667a68.266667 68.266667 0 0 0 0 97.109333l194.218667 194.218667a68.266667 68.266667 0 0 0 97.109333 0l267.434667-261.290667z" fill="#FF5C74" p-id="1081"></path><path d="M628.906667 588.970667L392.533333 819.2a68.266667 68.266667 0 0 1-97.109333 0l51.2 51.2A68.266667 68.266667 0 0 0 443.733333 870.4l267.434667-260.096z" fill="#F23D60" p-id="1082"></path><path d="M191.829333 699.733333a51.2 51.2 0 0 1 0-72.874666l119.466667-119.466667-67.242667-17.066667L152.405333 580.266667a68.266667 68.266667 0 0 0 0 97.109333l194.218667 194.218667a68.266667 68.266667 0 0 0 36.010667 18.944z" fill="#FF889F" p-id="1083"></path><path d="M705.450667 167.7824l72.772266-72.772267 145.664 145.664-72.772266 72.772267z" fill="#FFFFFF" p-id="1084"></path><path d="M778.24 94.890667l-5.12 5.12 102.741333 102.741333-67.754666 67.754667 43.008 42.837333 72.874666-72.704-145.749333-145.749333z" fill="#E1E8EF" p-id="1085"></path><path d="M176.810667 701.610667L128.170667 750.933333a34.133333 34.133333 0 0 0 0 48.469334l97.109333 97.109333a34.133333 34.133333 0 0 0 48.469333 0l48.469334-48.469333z" fill="#FFFFFF" p-id="1086"></path><path d="M279.381333 804.352L238.933333 844.288a34.133333 34.133333 0 0 1-48.469333 0l-72.021333-72.533333a34.133333 34.133333 0 0 0 9.728 26.965333l97.109333 97.109333a34.133333 34.133333 0 0 0 48.469333 0l48.469334-48.469333z" fill="#E1E8EF" p-id="1087"></path><path d="M1007.957333 452.949333l-127.488-127.488 54.784-54.784 18.261334 18.261334A25.6 25.6 0 1 0 989.866667 252.757333L771.242667 34.133333a25.6 25.6 0 0 0-36.181334 36.181334l18.432 18.432-54.954666 54.784L571.050667 16.042667a25.6 25.6 0 0 0-36.181334 36.181333l54.784 54.784L134.314667 562.176a94.208 94.208 0 0 0 0 133.290667l6.144 6.144-30.378667 30.549333a60.074667 60.074667 0 0 0 0 85.333333L146.602667 853.333333l-124.586667 124.416A17.066667 17.066667 0 1 0 46.08 1001.813333l124.586667-124.416 36.522666 36.522667a60.074667 60.074667 0 0 0 85.333334 0l30.378666-30.378667 6.144 6.144a94.208 94.208 0 0 0 133.290667 0l454.656-455.338666 54.784 54.784a25.6 25.6 0 0 0 36.181333-36.181334zM789.504 125.098667l109.397333 109.397333-54.784 54.784-109.397333-109.397333zM256 877.738667a8.704 8.704 0 0 1-12.288 0l-97.450667-97.109334a8.704 8.704 0 0 1 0-12.288l30.378667-30.378666 109.397333 109.397333z m466.602667-320.853334l-41.984-41.984a17.066667 17.066667 0 0 0-24.064 24.064L698.197333 580.266667l-55.808 56.32L563.2 557.909333a17.066667 17.066667 0 0 0-24.064 24.064l78.677333 78.677334L563.2 716.8l-42.666667-42.154667a17.066667 17.066667 0 0 0-24.064 24.064l41.984 41.984-55.808 55.808-78.677333-78.677333a17.066667 17.066667 0 0 0-24.064 24.064l78.677333 78.677333L425.642667 853.333333a44.032 44.032 0 0 1-60.928 0L170.666667 659.285333a43.008 43.008 0 0 1 0-60.928L625.834667 143.189333l254.976 254.976z" fill="#3E4454" p-id="1088"></path></svg>